<?xml version="1.0" standalone="no"?>
<!DOCTYPE svg PUBLIC "-//W3C//DTD SVG 20010904//EN"
 "http://www.w3.org/TR/2001/REC-SVG-20010904/DTD/svg10.dtd">
<svg version="1.0" xmlns="http://www.w3.org/2000/svg"
 width="300.000000pt" height="300.000000pt" viewBox="0 0 300.000000 300.000000"
 preserveAspectRatio="xMidYMid meet">

<g transform="translate(0.000000,300.000000) scale(0.100000,-0.100000)"
fill="#000000" stroke="none">
<path d="M646 2151 c-42 -47 -45 -78 -46 -506 0 -418 3 -462 39 -507 l19 -23
353 -3 c326 -3 355 -1 366 15 32 43 32 43 -342 43 -340 0 -356 1 -375 20 -11
11 -22 30 -25 42 -3 13 -4 206 -3 429 3 385 4 408 22 428 19 21 25 21 280 19
l260 -3 26 -160 c16 -95 29 -152 32 -140 4 11 17 84 29 163 l22 142 162 0 162
0 11 25 c7 14 12 28 12 30 0 3 -222 5 -493 5 -476 0 -495 -1 -511 -19z"/>
<path d="M1710 2156 c0 -8 -3 -21 -6 -30 -6 -14 26 -16 315 -16 l321 0 20 -32
c19 -31 20 -52 20 -429 0 -408 -4 -449 -40 -469 -11 -6 -184 -10 -438 -10
-374 0 -421 -2 -426 -16 -17 -45 -32 -44 419 -44 296 0 432 3 449 11 14 7 33
28 43 48 16 33 18 75 21 454 3 443 0 480 -43 523 l-24 24 -316 0 c-265 0 -315
-2 -315 -14z"/>
<path d="M1687 1844 c-4 -4 -7 -45 -7 -91 l0 -83 45 0 c55 0 65 27 13 32 -46
4 -53 38 -9 38 24 0 31 4 31 20 0 16 -7 20 -30 20 -19 0 -30 5 -30 14 0 15 29
29 51 24 8 -2 14 4 14 12 0 16 -64 27 -78 14z"/>
<path d="M1816 1828 c-20 -29 -20 -107 0 -136 11 -16 24 -21 50 -19 33 2 34 3
34 45 0 35 -3 42 -20 42 -22 0 -26 -10 -9 -27 13 -13 4 -33 -16 -33 -32 0 -46
71 -21 105 14 19 15 19 33 2 11 -9 23 -17 26 -17 13 0 7 29 -9 44 -22 22 -50
20 -68 -6z"/>
<path d="M1930 1848 c0 -2 9 -27 20 -56 11 -29 20 -68 20 -87 0 -19 5 -35 10
-35 6 0 10 15 10 34 0 19 9 55 20 81 23 53 24 65 9 65 -5 0 -15 -13 -20 -30
-6 -16 -14 -30 -18 -30 -4 0 -12 14 -18 30 -6 17 -16 30 -22 30 -6 0 -11 -1
-11 -2z"/>
<path d="M2060 1760 c0 -53 4 -90 10 -90 6 0 10 14 10 30 0 22 5 30 18 30 44
0 69 72 36 104 -8 9 -29 16 -45 16 l-29 0 0 -90z m58 33 c4 -24 -26 -40 -34
-18 -8 21 3 47 19 43 6 -3 13 -14 15 -25z"/>
<path d="M2177 1843 c-12 -11 -8 -21 13 -26 18 -5 20 -14 20 -76 0 -41 4 -71
10 -71 6 0 10 30 10 70 0 54 4 72 15 76 8 4 15 12 15 20 0 15 -70 21 -83 7z"/>
<path d="M974 1828 c-42 -20 -68 -85 -72 -184 -5 -101 6 -150 45 -201 46 -62
117 -36 148 54 13 37 13 38 -12 41 -17 2 -30 -3 -40 -17 -8 -12 -25 -21 -38
-21 -69 0 -88 178 -25 235 22 20 56 12 65 -16 9 -28 55 -26 55 2 0 30 -29 87
-54 104 -24 17 -42 18 -72 3z"/>
<path d="M750 1625 l0 -205 60 0 60 0 0 34 c0 33 -2 35 -37 38 -38 3 -38 3
-38 48 0 45 0 45 38 48 35 3 37 5 37 38 0 33 -1 34 -40 34 l-40 0 0 45 0 45
40 0 40 0 0 40 0 40 -60 0 -60 0 0 -205z"/>
<path d="M1135 1818 c-3 -8 -4 -101 -3 -208 3 -187 4 -195 23 -195 19 0 20 8
24 130 l3 130 24 -124 c12 -68 27 -128 33 -134 16 -16 28 0 35 45 4 24 14 84
24 133 l17 90 5 -135 c4 -111 8 -135 20 -135 13 0 15 31 18 208 l2 207 -30 0
c-16 0 -30 -2 -30 -5 0 -16 -42 -242 -47 -255 -3 -8 -18 46 -33 120 -26 131
-27 135 -53 138 -16 2 -29 -2 -32 -10z"/>
<path d="M1696 1568 c-21 -29 -20 -107 0 -136 21 -30 54 -25 73 10 20 35 7 47
-19 17 -20 -24 -20 -24 -35 -5 -17 23 -19 59 -5 87 13 24 29 24 46 2 17 -25
27 -11 15 21 -13 33 -53 35 -75 4z"/>
<path d="M1825 1518 c-9 -40 -18 -81 -21 -90 -8 -28 15 -21 26 7 5 14 16 25
25 25 9 0 20 -11 25 -25 11 -28 34 -35 26 -7 -3 9 -12 50 -21 90 -11 45 -22
72 -30 72 -8 0 -19 -27 -30 -72z m44 -20 c1 -5 -6 -8 -14 -8 -16 0 -19 9 -8
36 6 16 7 16 14 -2 4 -10 8 -22 8 -26z"/>
<path d="M1940 1500 l0 -90 29 0 c41 0 51 18 47 91 -3 79 -9 89 -47 89 l-29 0
0 -90z m55 40 c0 -8 -8 -16 -17 -18 -13 -2 -18 3 -18 18 0 15 5 20 18 18 9 -2
17 -10 17 -18z m0 -75 c0 -11 -8 -21 -17 -23 -14 -3 -18 3 -18 23 0 20 4 26
18 23 9 -2 17 -12 17 -23z"/>
<path d="M2060 1499 l0 -90 32 3 c37 4 49 25 16 30 -21 3 -23 8 -26 76 -4 104
-22 89 -22 -19z"/>
<path d="M2160 1500 l0 -90 39 0 c59 0 71 28 15 34 -40 4 -41 40 -1 44 38 5
36 32 -3 32 -23 0 -30 4 -30 20 0 16 7 20 35 20 24 0 35 5 35 15 0 11 -12 15
-45 15 l-45 0 0 -90z"/>
<path d="M1600 819 c0 -67 1 -70 22 -67 28 4 36 28 9 28 -12 0 -21 6 -21 15 0
8 7 15 15 15 8 0 15 5 15 10 0 6 -7 13 -15 16 -21 8 -19 21 5 27 28 7 25 27
-5 27 -24 0 -25 -2 -25 -71z"/>
<path d="M1722 822 c-2 -70 -1 -73 20 -70 28 4 34 24 9 31 -16 4 -21 15 -24
58 -3 48 -4 45 -5 -19z"/>
<path d="M1837 884 c-14 -14 -7 -48 15 -71 23 -25 18 -44 -7 -23 -12 10 -15
10 -15 -3 0 -8 7 -21 16 -28 14 -11 18 -10 30 6 16 21 9 55 -12 68 -8 4 -14
15 -14 24 0 13 2 13 16 2 14 -12 16 -11 13 6 -4 20 -29 31 -42 19z"/>
<path d="M1961 833 c-14 -72 -14 -95 0 -70 11 18 39 24 39 7 0 -5 4 -10 9 -10
8 0 5 23 -14 108 -9 38 -22 25 -34 -35z m29 -8 c0 -8 -4 -15 -10 -15 -5 0 -7
7 -4 15 4 8 8 15 10 15 2 0 4 -7 4 -15z"/>
<path d="M2085 868 c4 -13 9 -41 12 -63 7 -53 23 -70 23 -23 0 19 7 52 15 72
9 22 11 36 5 36 -6 0 -15 -10 -20 -22 l-9 -23 -7 23 c-3 12 -11 22 -16 22 -6
0 -7 -9 -3 -22z"/>
<path d="M2221 833 c-14 -72 -14 -95 0 -70 11 18 39 24 39 7 0 -5 4 -10 9 -10
8 0 5 23 -14 108 -9 38 -22 25 -34 -35z m25 -20 c-10 -10 -19 5 -10 18 6 11 8
11 12 0 2 -7 1 -15 -2 -18z"/>
<path d="M2342 823 c2 -53 7 -68 19 -71 26 -5 49 26 49 64 0 49 -16 74 -46 74
-24 0 -25 -1 -22 -67z m53 17 c7 -21 -10 -60 -25 -60 -6 0 -10 18 -10 40 0 43
23 57 35 20z"/>
</g>
</svg>
